<svg id="Capa_1" enable-background="new 0 0 488.006 488.006" height="512" viewBox="0 0 488.006 488.006" width="512" xmlns="http://www.w3.org/2000/svg"><path fill="#997843" d="m463.88 412.799c20.27-8.765 29.597-32.303 20.831-52.573-3.421-7.912-9.307-14.506-16.781-18.801 4.709-19.343-5.531-39.204-24.019-46.588-1.28-.51-2.585-.956-3.91-1.334v-8.807c1.407-.349 2.692-1.075 3.716-2.1l33.941-33.941c3.125-3.124 3.125-8.189.001-11.314 0 0-.001-.001-.001-.001l-231.029-231.024c-3.894-3.045-9.362-3.045-13.256 0l-231.029 231.029c-3.125 3.124-3.125 8.189-.001 11.314 0 0 .001.001.001.001l33.941 33.941c1.024 1.025 2.309 1.752 3.716 2.1v191.272c0 4.418 3.582 8 8 8h423.427c4.418 0 8-3.582 8-8 0-.654-.08-1.305-.239-1.94zm-12.755-90.279c1.867 4.36 2.399 9.176 1.529 13.839-6.953-.825-14.001.201-20.43 2.973l6.306 14.705c5.356-2.313 11.375-2.58 16.915-.752l.028.011c12.595 4.129 19.459 17.687 15.33 30.282s-17.687 19.459-30.282 15.33c-6.554-2.149-11.867-7.013-14.584-13.353-1.741-4.061-6.444-5.941-10.505-4.2h-.001l-52.717 22.618h-61.813c-11.897-5.825-16.819-20.191-10.994-32.087 5.825-11.897 20.191-16.819 32.087-10.994 5.157 2.525 9.236 6.815 11.498 12.093 1.741 4.061 6.444 5.941 10.505 4.2h.001l58.816-25.232c4.061-1.741 5.941-6.444 4.2-10.505v-.001c-5.283-12.156.289-26.294 12.446-31.577 12.156-5.283 26.294.289 31.577 12.446.03.069.06.139.089.208zm-31.809 81.453h-16.015l11.829-5.074c1.252 1.805 2.652 3.502 4.186 5.074zm-291.315 16h-40v-32h40zm0-48h-40v-32h40zm-40 64h40v32h-40zm41.148-112h-41.148v-32h50.821c-4.82 10.118-8.081 20.907-9.673 32zm18.993-48h-60.141v-32h94.369c-13.522 8.156-25.183 19.057-34.228 32zm-45.915-48 32-32h211.548l32 32zm89.774-80h96v32h-96zm112 6.226 25.774 25.774h-25.774zm-105.774-22.226 41.774-41.774 41.774 41.774zm-22.226 48h-25.774l25.774-25.774zm248 94.227v18.1c-5.675.736-11.129 2.669-16 5.673v-39.77zm-34.115 65.885-37.885 16.253v-16.365h37.866c.007.037.011.075.019.112zm2.115-96.112v32h-60.055c-9.043-12.926-20.682-23.824-34.174-32zm0 48v24.988c-.024.06-.052.118-.076.178-.877 2.214-1.556 4.501-2.03 6.834h-39.027c-1.569-11.091-4.809-21.88-9.61-32zm-372.687-48.971 220.687-220.686 220.687 220.686-22.628 22.628-.374-.373c-.01-.01-.018-.021-.028-.031l-192-192c-3.124-3.124-8.189-3.124-11.314 0l-192 192c-.01.01-.018.021-.028.031l-.374.373zm36.687 224.971v-193.773l16-16v209.773zm88-128c0-53.019 42.981-96 96-96s96 42.981 96 96v10.915c-4.714-3.65-10.178-6.209-16-7.492v-3.423c0-44.183-35.817-80-80-80s-80 35.817-80 80v128h-16zm32 0c0-35.346 28.654-64 64-64s64 28.654 64 64v3.167c-21.699 4.093-35.972 25.001-31.88 46.701.96 5.092 2.901 9.948 5.715 14.299-3.02.613-5.419 2.905-6.169 5.894l-14.485 57.939h-81.181zm97.673 128 12-48h163.508l12 48z"/><path fill="#997843" d="m208.001 155.973h16v16h-16z"/><path fill="#997843" d="m240.001 155.973h32v16h-32z"/></svg>