<svg height="511pt" viewBox="-12 0 511 511.99977" width="511pt" xmlns="http://www.w3.org/2000/svg"><path fill="#997843" d="m26.113281 444.875c-18.222656 4.671875-29.207031 23.226562-24.539062 41.449219 4.667969 18.222656 23.226562 29.207031 41.449219 24.539062 12.046874-3.085937 21.453124-12.492187 24.539062-24.539062h76.394531c14.097657 24.507812 45.394531 32.945312 69.898438 18.847656 24.507812-14.097656 32.949219-45.390625 18.851562-69.898437-7.644531-13.285157-20.835937-22.449219-35.953125-24.96875v-17.832032h25.59375c4.714844 0 8.535156-3.820312 8.535156-8.53125h25.59375c23.550782-.027344 42.632813-19.113281 42.660157-42.660156v-290.089844h85.320312v360.734375l-45.355469 15.117188c-3.484374 1.160156-5.832031 4.417969-5.835937 8.089843v34.128907c0 4.710937 3.820313 8.53125 8.53125 8.53125h136.511719c4.714844 0 8.535156-3.820313 8.535156-8.53125v-34.128907c-.003906-3.671874-2.355469-6.929687-5.835938-8.089843l-45.359374-15.117188v-369.265625c-.027344-23.546875-19.109376-42.6328122-42.660157-42.660156h-102.382812c-23.546875.0273438-42.632813 19.113281-42.660157 42.660156v290.089844h-17.0625c0-4.714844-3.820312-8.535156-8.535156-8.535156h-25.59375v-51.191406c0-18.847657-15.28125-34.128907-34.128906-34.128907h-8.53125v-8.53125c0-14.136719-11.460938-25.59375-25.597656-25.59375h-34.125c-14.136719 0-25.597656 11.457031-25.597656 25.59375v8.53125h-8.53125c-18.847657 0-34.128907 15.28125-34.128907 34.128907v51.191406h-17.0625c-4.714843 0-8.535156 3.820312-8.535156 8.535156v42.660156c0 4.710938 3.820313 8.53125 8.535156 8.53125h17.0625zm399.621094-18.273438 44.042969 14.683594v19.445313h-119.449219v-19.445313l44.042969-14.683594zm-7.148437-127.980468v110.914062h-17.0625v-110.914062zm-17.0625-17.066406v-17.0625h17.0625v17.0625zm-170.640626 68.257812h17.0625c9.425782 0 17.0625-7.640625 17.0625-17.0625v-290.089844c0-14.136718 11.460938-25.597656 25.597657-25.597656h102.382812c14.136719 0 25.597657 11.460938 25.597657 25.597656v204.769532h-17.0625v-196.238282c0-9.421875-7.640626-17.0625-17.066407-17.0625h-85.320312c-9.421875 0-17.0625 7.640625-17.0625 17.0625v290.089844c0 14.136719-11.460938 25.59375-25.597657 25.59375h-25.59375zm-34.128906-8.53125h17.0625v34.128906h-17.0625zm-125.421875 127.980469h-3.769531c-3.109375-11.949219-12.4375-21.277344-24.386719-24.386719v-60.933594h17.066407c4.710937 0 8.53125-3.820312 8.53125-8.53125v-34.128906h110.914062v34.128906h-32.417969c-25.09375.054688-47.496093 15.742188-56.125 39.304688zm65.695313-8.53125c.019531 2.859375.277344 5.710937.769531 8.53125h-48.316406l17.6875-48.710938c6.160156-16.835937 22.167969-28.046875 40.101562-28.078125h32.417969v17.832032c-24.597656 4.179687-42.613281 25.472656-42.660156 50.425781zm51.195312-34.128907c18.847656 0 34.125 15.277344 34.125 34.128907 0 18.847656-15.277344 34.125-34.125 34.125-18.851562 0-34.128906-15.277344-34.128906-34.125 0-18.851563 15.277344-34.128907 34.128906-34.128907zm-102.386718-196.238281c0-4.710937 3.820312-8.53125 8.535156-8.53125h34.125c4.714844 0 8.53125 3.820313 8.53125 8.53125v8.53125h-51.191406zm-25.59375 25.597657h102.382812c9.425781 0 17.0625 7.640624 17.0625 17.0625h-136.511719c0-9.421876 7.640625-17.0625 17.066407-17.0625zm-17.066407 34.128906h136.511719v34.125h-136.511719zm-25.59375 76.785156v-25.59375h34.128907v25.59375zm17.0625 93.855469c9.425781 0 17.066407 7.636719 17.066407 17.0625s-7.640626 17.0625-17.066407 17.0625c-9.421875 0-17.0625-7.636719-17.0625-17.0625s7.640625-17.0625 17.0625-17.0625zm0 0"/><path fill="#997843" d="m205.285156 460.730469c0 9.421875-7.640625 17.0625-17.0625 17.0625-9.425781 0-17.066406-7.640625-17.066406-17.0625 0-9.425781 7.640625-17.066407 17.066406-17.066407 9.421875 0 17.0625 7.640626 17.0625 17.066407zm0 0"/><path fill="#997843" d="m333.265625 494.855469h17.0625v17.066406h-17.0625zm0 0"/><path fill="#997843" d="m367.394531 486.324219h17.0625v17.066406h-17.0625zm0 0"/><path fill="#997843" d="m401.523438 494.855469h17.0625v17.066406h-17.0625zm0 0"/><path fill="#997843" d="m435.648438 486.324219h17.066406v17.066406h-17.066406zm0 0"/><path fill="#997843" d="m469.777344 494.855469h17.066406v17.066406h-17.066406zm0 0"/></svg>