<?xml version="1.0" encoding="iso-8859-1"?>
<!-- Generator: Adobe Illustrator 19.0.0, SVG Export Plug-In . SVG Version: 6.00 Build 0)  -->
<svg version="1.1" id="Capa_1" xmlns="http://www.w3.org/2000/svg" xmlns:xlink="http://www.w3.org/1999/xlink" x="0px" y="0px"
	 viewBox="0 0 480 480" style="enable-background:new 0 0 480 480;" xml:space="preserve">
<g>
	<g>
		<g>
			<path fill="#997843" d="M444,224h-2.8c-8.751-24.935-36.059-38.053-60.994-29.302c-5.987,2.101-11.495,5.372-16.206,9.622V128
				c0.002-15.065-6.086-29.491-16.88-40H380c13.255,0,24-10.745,24-24V24c0-13.255-10.745-24-24-24H76C62.745,0,52,10.745,52,24v40
				c0,13.255,10.745,24,24,24h32.88C98.086,98.509,91.998,112.935,92,128v120H52c-22.08,0.026-39.974,17.92-40,40v128
				c0,13.255,10.745,24,24,24h56c0.026,22.08,17.92,39.974,40,40h192c22.08-0.026,39.974-17.92,40-40h56c13.255,0,24-10.745,24-24
				V288c12.606,0.585,23.323-9.11,24-21.712v-20.576C467.323,233.11,456.606,223.415,444,224z M92,336v88H36c-4.418,0-8-3.582-8-8
				V312h64V336z M92,272v24H28v-8c0-13.255,10.745-24,24-24h40V272z M316,16h64c4.418,0,8,3.582,8,8v40c0,4.418-3.582,8-8,8h-64V16z
				 M284,16h16v56h-16V16z M188,16h80v56h-80V16z M156,16h16v56h-16V16z M76,72c-4.418,0-8-3.582-8-8V24c0-4.418,3.582-8,8-8h64v56
				H76z M348,440c0,13.255-10.745,24-24,24H132c-13.255,0-24-10.745-24-24v-24h240V440z M348,400H108v-64h32v16
				c0,13.255,10.745,24,24,24s24-10.745,24-24v-16h160V400z M156,352v-16h16v16c0,4.418-3.582,8-8,8S156,356.418,156,352z M348,312
				v8H108v-32h240V312z M348,240v32H108v-90.848c8.374,10.356,19.449,18.194,32,22.648V240h48v-32h80v32h48v-36.2
				c12.551-4.454,23.626-12.292,32-22.648V240z M164,208h8v16h-16v-16.472C158.656,207.835,161.327,207.992,164,208z M156,191.36
				V176h16v16h-8C161.321,191.978,158.648,191.764,156,191.36z M292,208c2.673-0.008,5.344-0.165,8-0.472V224h-16v-16H292z M284,192
				v-16h16v15.36c-2.648,0.404-5.321,0.618-8,0.64H284z M348,136c-0.029,21.603-12.482,41.262-32,50.52V160h-48v32h-80v-32h-48
				v26.52c-19.518-9.258-31.971-28.917-32-50.52v-8c0.026-22.08,17.92-39.974,40-40h160c22.08,0.026,39.974,17.92,40,40V136z
				 M428,416c0,4.418-3.582,8-8,8h-56V312h64V416z M428,296h-64v-32h64V296z M428,248h-64v-8c0-17.673,14.327-32,32-32
				c17.673,0,32,14.327,32,32V248z M452,266.288c0,3.096-3.664,5.712-8,5.712v-32c4.336,0,8,2.616,8,5.712V266.288z"/>
		</g>
	</g>
</g>
<g>
</g>
<g>
</g>
<g>
</g>
<g>
</g>
<g>
</g>
<g>
</g>
<g>
</g>
<g>
</g>
<g>
</g>
<g>
</g>
<g>
</g>
<g>
</g>
<g>
</g>
<g>
</g>
<g>
</g>
</svg>
