<svg id="Capa_1" enable-background="new 0 0 464 464" height="512" viewBox="0 0 464 464" width="512" xmlns="http://www.w3.org/2000/svg"><path fill="#997843" d="m1.6 236.8 24 32c1.511 2.014 3.882 3.2 6.4 3.2v24c0 3.981 2.927 7.356 6.868 7.919l25.132 3.591v100.49c0 4.418 3.582 8 8 8h8v24c0 4.418 3.582 8 8 8s8-3.582 8-8v-24h336v24c0 4.418 3.582 8 8 8s8-3.582 8-8v-24h8c4.418 0 8-3.582 8-8v-352c0-4.418-3.582-8-8-8h-120v-8c0-13.255-10.745-24-24-24s-24 10.745-24 24v8h-80v-8c0-13.255-10.745-24-24-24s-24 10.745-24 24v8h-88c-4.418 0-8 3.582-8 8v48.022c-17.649-13.267-42.711-9.715-55.978 7.934-5.211 6.932-8.027 15.371-8.022 24.044v96h.017c-.006 1.729.549 3.414 1.583 4.8zm446.4-12.8h-32v-32h32zm0-48h-32v-32h32zm0-48h-32v-32h32zm-144-88c0-4.418 3.582-8 8-8s8 3.582 8 8v8h-16zm-96 24h112v40.813c-15.695 3.232-27.962 15.493-31.2 31.187h-49.6c-3.238-15.694-15.505-27.955-31.2-31.187zm16 80c0 4.418 3.582 8 8 8h64c4.418 0 8-3.582 8-8-.012-13.255 10.723-24.01 23.978-24.022s24.01 10.723 24.022 23.978c.004 4.763-1.409 9.42-4.059 13.377-6.065-3.493-12.942-5.332-19.941-5.333v16c5.813-.001 11.428 2.11 15.8 5.941.02.019.038.04.059.059 9.949 8.759 10.913 23.924 2.155 33.873s-23.924 10.913-33.873 2.155c-5.179-4.56-8.145-11.128-8.141-18.028 0-4.418-3.582-8-8-8h-64c-4.418 0-8 3.582-8 8 .012 13.255-10.723 24.01-23.978 24.022s-24.01-10.723-24.022-23.978c-.004-4.763 1.409-9.42 4.059-13.377 6.065 3.493 12.942 5.332 19.941 5.333v-16c-5.813.001-11.428-2.11-15.8-5.941-.02-.019-.038-.04-.059-.059-9.949-8.759-10.913-23.924-2.155-33.873 8.759-9.949 23.924-10.913 33.873-2.155 5.179 4.56 8.145 11.128 8.141 18.028zm-48-104c0-4.418 3.582-8 8-8s8 3.582 8 8v8h-16zm-96 24h112v40.805c-21.641 4.413-35.606 25.533-31.194 47.174 1.184 5.808 3.645 11.281 7.205 16.021-13.258 17.671-9.68 42.744 7.991 56.001 17.671 13.258 42.744 9.68 56.001-7.991 3.555-4.738 6.013-10.207 7.197-16.01h49.6c4.411 21.646 25.535 35.618 47.182 31.207 21.646-4.411 35.618-25.535 31.207-47.182-1.184-5.81-3.645-11.283-7.204-16.025 13.261-17.661 9.695-42.729-7.966-55.991-4.74-3.559-10.211-6.02-16.019-7.204v-40.805h112v16h-96v16h48v32h-16v16h16v32h-16v16h16v32h-16v16h16v16h16v-16h32v128h-17.222l-6.886-41.315c-.643-3.858-3.981-6.685-7.892-6.685h-.742c3.236-12.854-4.561-25.897-17.415-29.133-3.742-.942-7.657-.968-11.411-.075-8.455-10.18-23.562-11.578-33.742-3.122-1.135.942-2.18 1.988-3.122 3.122-12.864-3.098-25.804 4.818-28.902 17.682-.913 3.791-.887 7.747.076 11.526h-.742c-3.911 0-7.249 2.827-7.892 6.685l-6.886 41.315h-33.222v-32h16v-16h-16v-32h32v-16h-32v-16h-16v16h-32v-16h-16v16h-32v-16h-16v16h-32v-32h16v-16h-16v-32h16v-16h-16v-32h16v-16h-16v-32h48v-16h-96zm329.223 272 5.334 32h-93.114l5.334-32zm-73.223-21.859c0-4.418 3.581-8 7.999-8.001 1.585 0 3.134.471 4.452 1.353 3.667 2.465 8.638 1.49 11.102-2.177.379-.564.685-1.174.91-1.816 1.448-4.163 5.996-6.363 10.159-4.915 2.303.801 4.114 2.612 4.915 4.915 1.462 4.169 6.027 6.365 10.196 4.903.641-.225 1.252-.531 1.816-.91 3.662-2.463 8.627-1.491 11.09 2.171 2.201 3.273 1.685 7.663-1.215 10.336h-58.848c-1.634-1.511-2.567-3.633-2.576-5.859zm-112 5.859v-32h32v32zm32 16v32h-32v-32zm-80-16v-32h32v32zm32 16v32h-32v-32zm-80-16v-32h32v32zm32 16v32h-32v-32zm-80-240h32v32h-32zm0 48h32v32h-32zm0 48h32v32h-32zm0 48h32v32h-32zm0 69.8 14.868 2.124 2.264-15.838-17.132-2.453v-5.633h32v32h-32zm0 26.2h32v32h-32zm0 48h368v16h-368zm-44-128-12-16h32l-12 16zm28 35.347-16-2.285v-17.062c2.518 0 4.889-1.186 6.4-3.2l9.6-12.8zm-24-179.347c10.167.012 19.228 6.418 22.629 16h-45.258c3.401-9.582 12.462-15.988 22.629-16zm-24 96h24v-16h-24v-16h24v-16h-24v-16h48v80h-48z"/><path fill="#997843" d="m224 80h80v16h-80z"/></svg>