<svg id="Layer_1" enable-background="new 0 0 512.012 512.012" height="512" viewBox="0 0 512.012 512.012" width="512" xmlns="http://www.w3.org/2000/svg"><path fill="#997843" d="m490.056 127.997c29.242-29.242 29.242-76.823 0-106.066-29.242-29.243-76.823-29.243-106.067 0l-330.931 330.982-53.033 159.099 159.1-53.033zm-116.666 74.254-222.369 222.403-63.64-63.64 222.369-222.403zm-42.428-84.854 21.212-21.215 63.64 63.64-21.212 21.215zm74.24-74.252c17.547-17.546 46.094-17.545 63.641 0 17.545 17.546 17.545 46.094-.001 63.64l-31.817 31.822-63.64-63.64zm-332.478 345.639 50.529 50.529-75.794 25.264z"/></svg>